<?xml version="1.0" encoding="UTF-8" standalone="no"?>
<!DOCTYPE svg PUBLIC "-//W3C//DTD SVG 1.1//EN"
 "http://www.w3.org/Graphics/SVG/1.1/DTD/svg11.dtd">
<!-- Generated by graphviz version 2.40.1 (20161225.0304)
 -->
<!-- Title: dependencies Pages: 1 -->
<svg width="1072pt" height="284pt"
 viewBox="0.00 0.00 1072.00 284.00" xmlns="http://www.w3.org/2000/svg" xmlns:xlink="http://www.w3.org/1999/xlink">
<g id="graph0" class="graph" transform="scale(1 1) rotate(0) translate(4 280)">
<title>dependencies</title>
<polygon fill="#ffffff" stroke="transparent" points="-4,4 -4,-280 1068,-280 1068,4 -4,4"/>
<text text-anchor="start" x="511.0091" y="-42.4" font-family="sans-serif" font-weight="bold" font-size="14.00" fill="#000000">Legend</text>
<polygon fill="#ffffb3" stroke="transparent" points="298,-10 298,-30 318,-30 318,-10 298,-10"/>
<text text-anchor="start" x="321.629" y="-15.4" font-family="sans-serif" font-size="14.00" fill="#000000"> &#160;Declarations</text>
<polygon fill="#8dd3c7" stroke="transparent" points="411,-10 411,-30 431,-30 431,-10 411,-10"/>
<text text-anchor="start" x="434.7251" y="-15.4" font-family="sans-serif" font-size="14.00" fill="#000000"> &#160;Module</text>
<polygon fill="#80b1d3" stroke="transparent" points="497,-10 497,-30 517,-30 517,-10 497,-10"/>
<text text-anchor="start" x="520.7812" y="-15.4" font-family="sans-serif" font-size="14.00" fill="#000000"> &#160;Bootstrap</text>
<polygon fill="#fdb462" stroke="transparent" points="594,-10 594,-30 614,-30 614,-10 594,-10"/>
<text text-anchor="start" x="617.6732" y="-15.4" font-family="sans-serif" font-size="14.00" fill="#000000"> &#160;Providers</text>
<polygon fill="#fb8072" stroke="transparent" points="690,-10 690,-30 710,-30 710,-10 690,-10"/>
<text text-anchor="start" x="713.7258" y="-15.4" font-family="sans-serif" font-size="14.00" fill="#000000"> &#160;Exports</text>
<g id="clust1" class="cluster">
<title>cluster_AppModule</title>
<polygon fill="none" stroke="#000000" stroke-dasharray="1,5" points="8,-70 8,-268 1056,-268 1056,-70 8,-70"/>
</g>
<g id="clust2" class="cluster">
<title>cluster_AppModule_declarations</title>
<polygon fill="none" stroke="#000000" points="926,-78 926,-130 1048,-130 1048,-78 926,-78"/>
</g>
<g id="clust4" class="cluster">
<title>cluster_AppModule_imports</title>
<polygon fill="none" stroke="#000000" points="16,-78 16,-130 918,-130 918,-78 16,-78"/>
</g>
<g id="clust6" class="cluster">
<title>cluster_AppModule_bootstrap</title>
<polygon fill="none" stroke="#000000" points="548,-208 548,-260 672,-260 672,-208 548,-208"/>
</g>
<!-- AppComponent -->
<g id="node1" class="node">
<title>AppComponent</title>
<polygon fill="#ffffb3" stroke="#000000" points="1039.9399,-122 934.0601,-122 934.0601,-86 1039.9399,-86 1039.9399,-122"/>
<text text-anchor="middle" x="987" y="-99.8" font-family="Times,serif" font-size="14.00" fill="#000000">AppComponent</text>
</g>
<!-- AppModule -->
<g id="node2" class="node">
<title>AppModule</title>
<polygon fill="#8dd3c7" stroke="#000000" points="651.6571,-187 648.6571,-191 627.6571,-191 624.6571,-187 568.3429,-187 568.3429,-151 651.6571,-151 651.6571,-187"/>
<text text-anchor="middle" x="610" y="-164.8" font-family="Times,serif" font-size="14.00" fill="#000000">AppModule</text>
</g>
<!-- AppComponent&#45;&gt;AppModule -->
<g id="edge1" class="edge">
<title>AppComponent&#45;&gt;AppModule</title>
<path fill="none" stroke="#000000" d="M987,-122.2921C987,-144.2057 987,-178 987,-178 987,-178 661.786,-178 661.786,-178"/>
<polygon fill="#000000" stroke="#000000" points="661.7861,-174.5001 651.786,-178 661.786,-181.5001 661.7861,-174.5001"/>
</g>
<!-- AppComponent  -->
<g id="node9" class="node">
<title>AppComponent </title>
<polygon fill="#80b1d3" stroke="#000000" points="664.439,-252 555.561,-252 555.561,-216 664.439,-216 664.439,-252"/>
<text text-anchor="middle" x="610" y="-229.8" font-family="Times,serif" font-size="14.00" fill="#000000">AppComponent </text>
</g>
<!-- AppModule&#45;&gt;AppComponent  -->
<g id="edge8" class="edge">
<title>AppModule&#45;&gt;AppComponent </title>
<path fill="none" stroke="#000000" stroke-dasharray="1,5" d="M610,-187.1061C610,-187.1061 610,-205.991 610,-205.991"/>
<polygon fill="#000000" stroke="#000000" points="606.5001,-205.9909 610,-215.991 613.5001,-205.991 606.5001,-205.9909"/>
</g>
<!-- RouterModule -->
<g id="node3" class="node">
<title>RouterModule</title>
<polygon fill="#8dd3c7" stroke="#000000" points="909.6528,-122 906.6528,-126 885.6528,-126 882.6528,-122 812.3472,-122 812.3472,-86 909.6528,-86 909.6528,-122"/>
<text text-anchor="middle" x="861" y="-99.8" font-family="Times,serif" font-size="14.00" fill="#000000">RouterModule</text>
</g>
<!-- RouterModule&#45;&gt;AppModule -->
<g id="edge2" class="edge">
<title>RouterModule&#45;&gt;AppModule</title>
<path fill="none" stroke="#000000" d="M861,-122.1061C861,-141.3391 861,-169 861,-169 861,-169 661.7293,-169 661.7293,-169"/>
<polygon fill="#000000" stroke="#000000" points="661.7293,-165.5001 651.7293,-169 661.7293,-172.5001 661.7293,-165.5001"/>
</g>
<!-- BrowserModule -->
<g id="node4" class="node">
<title>BrowserModule</title>
<polygon fill="#8dd3c7" stroke="#000000" points="794.4734,-122 791.4734,-126 770.4734,-126 767.4734,-122 687.5266,-122 687.5266,-86 794.4734,-86 794.4734,-122"/>
<text text-anchor="middle" x="741" y="-99.8" font-family="Times,serif" font-size="14.00" fill="#000000">BrowserModule</text>
</g>
<!-- BrowserModule&#45;&gt;AppModule -->
<g id="edge3" class="edge">
<title>BrowserModule&#45;&gt;AppModule</title>
<path fill="none" stroke="#000000" d="M741,-122.027C741,-138.3976 741,-160 741,-160 741,-160 661.8094,-160 661.8094,-160"/>
<polygon fill="#000000" stroke="#000000" points="661.8094,-156.5001 651.8094,-160 661.8094,-163.5001 661.8094,-156.5001"/>
</g>
<!-- HttpClientModule -->
<g id="node5" class="node">
<title>HttpClientModule</title>
<polygon fill="#8dd3c7" stroke="#000000" points="669.1611,-122 666.1611,-126 645.1611,-126 642.1611,-122 550.8389,-122 550.8389,-86 669.1611,-86 669.1611,-122"/>
<text text-anchor="middle" x="610" y="-99.8" font-family="Times,serif" font-size="14.00" fill="#000000">HttpClientModule</text>
</g>
<!-- HttpClientModule&#45;&gt;AppModule -->
<g id="edge4" class="edge">
<title>HttpClientModule&#45;&gt;AppModule</title>
<path fill="none" stroke="#000000" d="M610,-122.1061C610,-122.1061 610,-140.991 610,-140.991"/>
<polygon fill="#000000" stroke="#000000" points="606.5001,-140.9909 610,-150.991 613.5001,-140.991 606.5001,-140.9909"/>
</g>
<!-- RootRouterModule -->
<g id="node6" class="node">
<title>RootRouterModule</title>
<polygon fill="#8dd3c7" stroke="#000000" points="532.3795,-122 529.3795,-126 508.3795,-126 505.3795,-122 407.6205,-122 407.6205,-86 532.3795,-86 532.3795,-122"/>
<text text-anchor="middle" x="470" y="-99.8" font-family="Times,serif" font-size="14.00" fill="#000000">RootRouterModule</text>
</g>
<!-- RootRouterModule&#45;&gt;AppModule -->
<g id="edge5" class="edge">
<title>RootRouterModule&#45;&gt;AppModule</title>
<path fill="none" stroke="#000000" d="M470,-122.027C470,-138.3976 470,-160 470,-160 470,-160 557.9954,-160 557.9954,-160"/>
<polygon fill="#000000" stroke="#000000" points="557.9954,-163.5001 567.9954,-160 557.9953,-156.5001 557.9954,-163.5001"/>
</g>
<!-- StoreModule.forRoot(args) -->
<g id="node7" class="node">
<title>StoreModule.forRoot(args)</title>
<polygon fill="#8dd3c7" stroke="#000000" points="389.2877,-122 386.2877,-126 365.2877,-126 362.2877,-122 220.7123,-122 220.7123,-86 389.2877,-86 389.2877,-122"/>
<text text-anchor="middle" x="305" y="-99.8" font-family="Times,serif" font-size="14.00" fill="#000000">StoreModule.forRoot(args)</text>
</g>
<!-- StoreModule.forRoot(args)&#45;&gt;AppModule -->
<g id="edge6" class="edge">
<title>StoreModule.forRoot(args)&#45;&gt;AppModule</title>
<path fill="none" stroke="#000000" d="M305,-122.1061C305,-141.3391 305,-169 305,-169 305,-169 558.2306,-169 558.2306,-169"/>
<polygon fill="#000000" stroke="#000000" points="558.2306,-172.5001 568.2306,-169 558.2305,-165.5001 558.2306,-172.5001"/>
</g>
<!-- EffectsModule.forRoot(args) -->
<g id="node8" class="node">
<title>EffectsModule.forRoot(args)</title>
<polygon fill="#8dd3c7" stroke="#000000" points="202.3774,-122 199.3774,-126 178.3774,-126 175.3774,-122 23.6226,-122 23.6226,-86 202.3774,-86 202.3774,-122"/>
<text text-anchor="middle" x="113" y="-99.8" font-family="Times,serif" font-size="14.00" fill="#000000">EffectsModule.forRoot(args)</text>
</g>
<!-- EffectsModule.forRoot(args)&#45;&gt;AppModule -->
<g id="edge7" class="edge">
<title>EffectsModule.forRoot(args)&#45;&gt;AppModule</title>
<path fill="none" stroke="#000000" d="M113,-122.2921C113,-144.2057 113,-178 113,-178 113,-178 558.0544,-178 558.0544,-178"/>
<polygon fill="#000000" stroke="#000000" points="558.0544,-181.5001 568.0544,-178 558.0544,-174.5001 558.0544,-181.5001"/>
</g>
</g>
</svg>
