<?xml version="1.0" encoding="UTF-8" standalone="no"?>
<!DOCTYPE svg PUBLIC "-//W3C//DTD SVG 1.1//EN"
 "http://www.w3.org/Graphics/SVG/1.1/DTD/svg11.dtd">
<!-- Generated by graphviz version 2.40.1 (20161225.0304)
 -->
<!-- Title: dependencies Pages: 1 -->
<svg width="688pt" height="284pt"
 viewBox="0.00 0.00 688.00 284.00" xmlns="http://www.w3.org/2000/svg" xmlns:xlink="http://www.w3.org/1999/xlink">
<g id="graph0" class="graph" transform="scale(1 1) rotate(0) translate(4 280)">
<title>dependencies</title>
<polygon fill="#ffffff" stroke="transparent" points="-4,4 -4,-280 684,-280 684,4 -4,4"/>
<text text-anchor="start" x="319.0091" y="-42.4" font-family="sans-serif" font-weight="bold" font-size="14.00" fill="#000000">Legend</text>
<polygon fill="#ffffb3" stroke="transparent" points="106,-10 106,-30 126,-30 126,-10 106,-10"/>
<text text-anchor="start" x="129.629" y="-15.4" font-family="sans-serif" font-size="14.00" fill="#000000"> &#160;Declarations</text>
<polygon fill="#8dd3c7" stroke="transparent" points="219,-10 219,-30 239,-30 239,-10 219,-10"/>
<text text-anchor="start" x="242.7251" y="-15.4" font-family="sans-serif" font-size="14.00" fill="#000000"> &#160;Module</text>
<polygon fill="#80b1d3" stroke="transparent" points="305,-10 305,-30 325,-30 325,-10 305,-10"/>
<text text-anchor="start" x="328.7812" y="-15.4" font-family="sans-serif" font-size="14.00" fill="#000000"> &#160;Bootstrap</text>
<polygon fill="#fdb462" stroke="transparent" points="402,-10 402,-30 422,-30 422,-10 402,-10"/>
<text text-anchor="start" x="425.6732" y="-15.4" font-family="sans-serif" font-size="14.00" fill="#000000"> &#160;Providers</text>
<polygon fill="#fb8072" stroke="transparent" points="498,-10 498,-30 518,-30 518,-10 498,-10"/>
<text text-anchor="start" x="521.7258" y="-15.4" font-family="sans-serif" font-size="14.00" fill="#000000"> &#160;Exports</text>
<g id="clust1" class="cluster">
<title>cluster_AppModule</title>
<polygon fill="none" stroke="#000000" stroke-dasharray="1,5" points="8,-70 8,-268 672,-268 672,-70 8,-70"/>
</g>
<g id="clust2" class="cluster">
<title>cluster_AppModule_declarations</title>
<polygon fill="none" stroke="#000000" points="542,-78 542,-130 664,-130 664,-78 542,-78"/>
</g>
<g id="clust4" class="cluster">
<title>cluster_AppModule_imports</title>
<polygon fill="none" stroke="#000000" points="16,-78 16,-130 534,-130 534,-78 16,-78"/>
</g>
<g id="clust6" class="cluster">
<title>cluster_AppModule_bootstrap</title>
<polygon fill="none" stroke="#000000" points="295,-208 295,-260 419,-260 419,-208 295,-208"/>
</g>
<!-- AppComponent -->
<g id="node1" class="node">
<title>AppComponent</title>
<polygon fill="#ffffb3" stroke="#000000" points="655.9399,-122 550.0601,-122 550.0601,-86 655.9399,-86 655.9399,-122"/>
<text text-anchor="middle" x="603" y="-99.8" font-family="Times,serif" font-size="14.00" fill="#000000">AppComponent</text>
</g>
<!-- AppModule -->
<g id="node2" class="node">
<title>AppModule</title>
<polygon fill="#8dd3c7" stroke="#000000" points="398.6571,-187 395.6571,-191 374.6571,-191 371.6571,-187 315.3429,-187 315.3429,-151 398.6571,-151 398.6571,-187"/>
<text text-anchor="middle" x="357" y="-164.8" font-family="Times,serif" font-size="14.00" fill="#000000">AppModule</text>
</g>
<!-- AppComponent&#45;&gt;AppModule -->
<g id="edge1" class="edge">
<title>AppComponent&#45;&gt;AppModule</title>
<path fill="none" stroke="#000000" d="M603,-122.2843C603,-143.3211 603,-175 603,-175 603,-175 408.7305,-175 408.7305,-175"/>
<polygon fill="#000000" stroke="#000000" points="408.7306,-171.5001 398.7305,-175 408.7305,-178.5001 408.7306,-171.5001"/>
</g>
<!-- AppComponent  -->
<g id="node7" class="node">
<title>AppComponent </title>
<polygon fill="#80b1d3" stroke="#000000" points="411.439,-252 302.561,-252 302.561,-216 411.439,-216 411.439,-252"/>
<text text-anchor="middle" x="357" y="-229.8" font-family="Times,serif" font-size="14.00" fill="#000000">AppComponent </text>
</g>
<!-- AppModule&#45;&gt;AppComponent  -->
<g id="edge6" class="edge">
<title>AppModule&#45;&gt;AppComponent </title>
<path fill="none" stroke="#000000" stroke-dasharray="1,5" d="M357,-187.1061C357,-187.1061 357,-205.991 357,-205.991"/>
<polygon fill="#000000" stroke="#000000" points="353.5001,-205.9909 357,-215.991 360.5001,-205.991 353.5001,-205.9909"/>
</g>
<!-- RouterModule -->
<g id="node3" class="node">
<title>RouterModule</title>
<polygon fill="#8dd3c7" stroke="#000000" points="525.6528,-122 522.6528,-126 501.6528,-126 498.6528,-122 428.3472,-122 428.3472,-86 525.6528,-86 525.6528,-122"/>
<text text-anchor="middle" x="477" y="-99.8" font-family="Times,serif" font-size="14.00" fill="#000000">RouterModule</text>
</g>
<!-- RouterModule&#45;&gt;AppModule -->
<g id="edge2" class="edge">
<title>RouterModule&#45;&gt;AppModule</title>
<path fill="none" stroke="#000000" d="M477,-122.0225C477,-139.3734 477,-163 477,-163 477,-163 408.9702,-163 408.9702,-163"/>
<polygon fill="#000000" stroke="#000000" points="408.9702,-159.5001 398.9702,-163 408.9701,-166.5001 408.9702,-159.5001"/>
</g>
<!-- BrowserModule -->
<g id="node4" class="node">
<title>BrowserModule</title>
<polygon fill="#8dd3c7" stroke="#000000" points="410.4734,-122 407.4734,-126 386.4734,-126 383.4734,-122 303.5266,-122 303.5266,-86 410.4734,-86 410.4734,-122"/>
<text text-anchor="middle" x="357" y="-99.8" font-family="Times,serif" font-size="14.00" fill="#000000">BrowserModule</text>
</g>
<!-- BrowserModule&#45;&gt;AppModule -->
<g id="edge3" class="edge">
<title>BrowserModule&#45;&gt;AppModule</title>
<path fill="none" stroke="#000000" d="M357,-122.1061C357,-122.1061 357,-140.991 357,-140.991"/>
<polygon fill="#000000" stroke="#000000" points="353.5001,-140.9909 357,-150.991 360.5001,-140.991 353.5001,-140.9909"/>
</g>
<!-- HttpClientModule -->
<g id="node5" class="node">
<title>HttpClientModule</title>
<polygon fill="#8dd3c7" stroke="#000000" points="285.1611,-122 282.1611,-126 261.1611,-126 258.1611,-122 166.8389,-122 166.8389,-86 285.1611,-86 285.1611,-122"/>
<text text-anchor="middle" x="226" y="-99.8" font-family="Times,serif" font-size="14.00" fill="#000000">HttpClientModule</text>
</g>
<!-- HttpClientModule&#45;&gt;AppModule -->
<g id="edge4" class="edge">
<title>HttpClientModule&#45;&gt;AppModule</title>
<path fill="none" stroke="#000000" d="M226,-122.0225C226,-139.3734 226,-163 226,-163 226,-163 305.1906,-163 305.1906,-163"/>
<polygon fill="#000000" stroke="#000000" points="305.1906,-166.5001 315.1906,-163 305.1906,-159.5001 305.1906,-166.5001"/>
</g>
<!-- RootRouterModule -->
<g id="node6" class="node">
<title>RootRouterModule</title>
<polygon fill="#8dd3c7" stroke="#000000" points="148.3795,-122 145.3795,-126 124.3795,-126 121.3795,-122 23.6205,-122 23.6205,-86 148.3795,-86 148.3795,-122"/>
<text text-anchor="middle" x="86" y="-99.8" font-family="Times,serif" font-size="14.00" fill="#000000">RootRouterModule</text>
</g>
<!-- RootRouterModule&#45;&gt;AppModule -->
<g id="edge5" class="edge">
<title>RootRouterModule&#45;&gt;AppModule</title>
<path fill="none" stroke="#000000" d="M86,-122.2843C86,-143.3211 86,-175 86,-175 86,-175 305.2502,-175 305.2502,-175"/>
<polygon fill="#000000" stroke="#000000" points="305.2502,-178.5001 315.2502,-175 305.2501,-171.5001 305.2502,-178.5001"/>
</g>
</g>
</svg>
