<?xml version="1.0" encoding="UTF-8" standalone="no"?>
<!DOCTYPE svg PUBLIC "-//W3C//DTD SVG 1.1//EN"
 "http://www.w3.org/Graphics/SVG/1.1/DTD/svg11.dtd">
<!-- Generated by graphviz version 2.40.1 (20161225.0304)
 -->
<!-- Title: dependencies Pages: 1 -->
<svg width="1574pt" height="290pt"
 viewBox="0.00 0.00 1574.00 290.00" xmlns="http://www.w3.org/2000/svg" xmlns:xlink="http://www.w3.org/1999/xlink">
<g id="graph0" class="graph" transform="scale(1 1) rotate(0) translate(4 286)">
<title>dependencies</title>
<polygon fill="#ffffff" stroke="transparent" points="-4,4 -4,-286 1570,-286 1570,4 -4,4"/>
<text text-anchor="start" x="762.0091" y="-42.4" font-family="sans-serif" font-weight="bold" font-size="14.00" fill="#000000">Legend</text>
<polygon fill="#ffffb3" stroke="transparent" points="549,-10 549,-30 569,-30 569,-10 549,-10"/>
<text text-anchor="start" x="572.629" y="-15.4" font-family="sans-serif" font-size="14.00" fill="#000000"> &#160;Declarations</text>
<polygon fill="#8dd3c7" stroke="transparent" points="662,-10 662,-30 682,-30 682,-10 662,-10"/>
<text text-anchor="start" x="685.7251" y="-15.4" font-family="sans-serif" font-size="14.00" fill="#000000"> &#160;Module</text>
<polygon fill="#80b1d3" stroke="transparent" points="748,-10 748,-30 768,-30 768,-10 748,-10"/>
<text text-anchor="start" x="771.7812" y="-15.4" font-family="sans-serif" font-size="14.00" fill="#000000"> &#160;Bootstrap</text>
<polygon fill="#fdb462" stroke="transparent" points="845,-10 845,-30 865,-30 865,-10 845,-10"/>
<text text-anchor="start" x="868.6732" y="-15.4" font-family="sans-serif" font-size="14.00" fill="#000000"> &#160;Providers</text>
<polygon fill="#fb8072" stroke="transparent" points="941,-10 941,-30 961,-30 961,-10 941,-10"/>
<text text-anchor="start" x="964.7258" y="-15.4" font-family="sans-serif" font-size="14.00" fill="#000000"> &#160;Exports</text>
<g id="clust1" class="cluster">
<title>cluster_AppModule</title>
<polygon fill="none" stroke="#000000" stroke-dasharray="1,5" points="8,-70 8,-274 926,-274 926,-70 8,-70"/>
</g>
<g id="clust3" class="cluster">
<title>cluster_AppModule_imports</title>
<polygon fill="none" stroke="#000000" points="16,-78 16,-130 918,-130 918,-78 16,-78"/>
</g>
<g id="clust5" class="cluster">
<title>cluster_AppModule_bootstrap</title>
<polygon fill="none" stroke="#000000" points="478,-214 478,-266 602,-266 602,-214 478,-214"/>
</g>
<g id="clust7" class="cluster">
<title>cluster_HomeModule</title>
<polygon fill="none" stroke="#000000" stroke-dasharray="1,5" points="934,-70 934,-266 1228,-266 1228,-70 934,-70"/>
</g>
<g id="clust9" class="cluster">
<title>cluster_HomeModule_imports</title>
<polygon fill="none" stroke="#000000" points="942,-78 942,-198 1220,-198 1220,-78 942,-78"/>
</g>
<g id="clust13" class="cluster">
<title>cluster_PopularModule</title>
<polygon fill="none" stroke="#000000" stroke-dasharray="1,5" points="1384,-138 1384,-266 1558,-266 1558,-138 1384,-138"/>
</g>
<g id="clust15" class="cluster">
<title>cluster_PopularModule_imports</title>
<polygon fill="none" stroke="#000000" points="1392,-146 1392,-198 1550,-198 1550,-146 1392,-146"/>
</g>
<g id="clust19" class="cluster">
<title>cluster_SharedModule</title>
<polygon fill="none" stroke="#000000" stroke-dasharray="1,5" points="1236,-206 1236,-274 1376,-274 1376,-206 1236,-206"/>
</g>
<g id="clust22" class="cluster">
<title>cluster_SharedModule_exports</title>
<polygon fill="none" stroke="#000000" points="1244,-214 1244,-266 1368,-266 1368,-214 1244,-214"/>
</g>
<!-- RouterModule -->
<g id="node1" class="node">
<title>RouterModule</title>
<polygon fill="#8dd3c7" stroke="#000000" points="909.6528,-122 906.6528,-126 885.6528,-126 882.6528,-122 812.3472,-122 812.3472,-86 909.6528,-86 909.6528,-122"/>
<text text-anchor="middle" x="861" y="-99.8" font-family="Times,serif" font-size="14.00" fill="#000000">RouterModule</text>
</g>
<!-- AppModule -->
<g id="node7" class="node">
<title>AppModule</title>
<polygon fill="#8dd3c7" stroke="#000000" points="581.6571,-190 578.6571,-194 557.6571,-194 554.6571,-190 498.3429,-190 498.3429,-154 581.6571,-154 581.6571,-190"/>
<text text-anchor="middle" x="540" y="-167.8" font-family="Times,serif" font-size="14.00" fill="#000000">AppModule</text>
</g>
<!-- RouterModule&#45;&gt;AppModule -->
<g id="edge1" class="edge">
<title>RouterModule&#45;&gt;AppModule</title>
<path fill="none" stroke="#000000" d="M861,-122.2921C861,-144.2057 861,-178 861,-178 861,-178 591.9651,-178 591.9651,-178"/>
<polygon fill="#000000" stroke="#000000" points="591.9652,-174.5001 581.9651,-178 591.9651,-181.5001 591.9652,-174.5001"/>
</g>
<!-- BrowserModule -->
<g id="node2" class="node">
<title>BrowserModule</title>
<polygon fill="#8dd3c7" stroke="#000000" points="794.4734,-122 791.4734,-126 770.4734,-126 767.4734,-122 687.5266,-122 687.5266,-86 794.4734,-86 794.4734,-122"/>
<text text-anchor="middle" x="741" y="-99.8" font-family="Times,serif" font-size="14.00" fill="#000000">BrowserModule</text>
</g>
<!-- BrowserModule&#45;&gt;AppModule -->
<g id="edge2" class="edge">
<title>BrowserModule&#45;&gt;AppModule</title>
<path fill="none" stroke="#000000" d="M741,-122.2667C741,-140.5552 741,-166 741,-166 741,-166 592.1362,-166 592.1362,-166"/>
<polygon fill="#000000" stroke="#000000" points="592.1362,-162.5001 582.1362,-166 592.1362,-169.5001 592.1362,-162.5001"/>
</g>
<!-- HttpClientModule -->
<g id="node3" class="node">
<title>HttpClientModule</title>
<polygon fill="#8dd3c7" stroke="#000000" points="669.1611,-122 666.1611,-126 645.1611,-126 642.1611,-122 550.8389,-122 550.8389,-86 669.1611,-86 669.1611,-122"/>
<text text-anchor="middle" x="610" y="-99.8" font-family="Times,serif" font-size="14.00" fill="#000000">HttpClientModule</text>
</g>
<!-- HttpClientModule&#45;&gt;AppModule -->
<g id="edge3" class="edge">
<title>HttpClientModule&#45;&gt;AppModule</title>
<path fill="none" stroke="#000000" d="M566.249,-122.2228C566.249,-122.2228 566.249,-143.7269 566.249,-143.7269"/>
<polygon fill="#000000" stroke="#000000" points="562.749,-143.7269 566.249,-153.7269 569.749,-143.727 562.749,-143.7269"/>
</g>
<!-- RootRouterModule -->
<g id="node4" class="node">
<title>RootRouterModule</title>
<polygon fill="#8dd3c7" stroke="#000000" points="532.3795,-122 529.3795,-126 508.3795,-126 505.3795,-122 407.6205,-122 407.6205,-86 532.3795,-86 532.3795,-122"/>
<text text-anchor="middle" x="470" y="-99.8" font-family="Times,serif" font-size="14.00" fill="#000000">RootRouterModule</text>
</g>
<!-- RootRouterModule&#45;&gt;AppModule -->
<g id="edge4" class="edge">
<title>RootRouterModule&#45;&gt;AppModule</title>
<path fill="none" stroke="#000000" d="M515.3058,-122.2228C515.3058,-122.2228 515.3058,-143.7269 515.3058,-143.7269"/>
<polygon fill="#000000" stroke="#000000" points="511.8058,-143.7269 515.3058,-153.7269 518.8058,-143.727 511.8058,-143.7269"/>
</g>
<!-- StoreModule.forRoot(args) -->
<g id="node5" class="node">
<title>StoreModule.forRoot(args)</title>
<polygon fill="#8dd3c7" stroke="#000000" points="389.2877,-122 386.2877,-126 365.2877,-126 362.2877,-122 220.7123,-122 220.7123,-86 389.2877,-86 389.2877,-122"/>
<text text-anchor="middle" x="305" y="-99.8" font-family="Times,serif" font-size="14.00" fill="#000000">StoreModule.forRoot(args)</text>
</g>
<!-- StoreModule.forRoot(args)&#45;&gt;AppModule -->
<g id="edge5" class="edge">
<title>StoreModule.forRoot(args)&#45;&gt;AppModule</title>
<path fill="none" stroke="#000000" d="M305,-122.2667C305,-140.5552 305,-166 305,-166 305,-166 488.2575,-166 488.2575,-166"/>
<polygon fill="#000000" stroke="#000000" points="488.2575,-169.5001 498.2575,-166 488.2575,-162.5001 488.2575,-169.5001"/>
</g>
<!-- EffectsModule.forRoot(args) -->
<g id="node6" class="node">
<title>EffectsModule.forRoot(args)</title>
<polygon fill="#8dd3c7" stroke="#000000" points="202.3774,-122 199.3774,-126 178.3774,-126 175.3774,-122 23.6226,-122 23.6226,-86 202.3774,-86 202.3774,-122"/>
<text text-anchor="middle" x="113" y="-99.8" font-family="Times,serif" font-size="14.00" fill="#000000">EffectsModule.forRoot(args)</text>
</g>
<!-- EffectsModule.forRoot(args)&#45;&gt;AppModule -->
<g id="edge6" class="edge">
<title>EffectsModule.forRoot(args)&#45;&gt;AppModule</title>
<path fill="none" stroke="#000000" d="M113,-122.2921C113,-144.2057 113,-178 113,-178 113,-178 488.28,-178 488.28,-178"/>
<polygon fill="#000000" stroke="#000000" points="488.28,-181.5001 498.28,-178 488.2799,-174.5001 488.28,-181.5001"/>
</g>
<!-- AppComponent  -->
<g id="node8" class="node">
<title>AppComponent </title>
<polygon fill="#80b1d3" stroke="#000000" points="594.439,-258 485.561,-258 485.561,-222 594.439,-222 594.439,-258"/>
<text text-anchor="middle" x="540" y="-235.8" font-family="Times,serif" font-size="14.00" fill="#000000">AppComponent </text>
</g>
<!-- AppModule&#45;&gt;AppComponent  -->
<g id="edge7" class="edge">
<title>AppModule&#45;&gt;AppComponent </title>
<path fill="none" stroke="#000000" stroke-dasharray="1,5" d="M540,-190.2228C540,-190.2228 540,-211.7269 540,-211.7269"/>
<polygon fill="#000000" stroke="#000000" points="536.5001,-211.7269 540,-221.7269 543.5001,-211.727 536.5001,-211.7269"/>
</g>
<!-- CommonModule -->
<g id="node9" class="node">
<title>CommonModule</title>
<polygon fill="#8dd3c7" stroke="#000000" points="1211.6681,-122 1208.6681,-126 1187.6681,-126 1184.6681,-122 1100.3319,-122 1100.3319,-86 1211.6681,-86 1211.6681,-122"/>
<text text-anchor="middle" x="1156" y="-99.8" font-family="Times,serif" font-size="14.00" fill="#000000">CommonModule</text>
</g>
<!-- SharedModule -->
<g id="node10" class="node">
<title>SharedModule</title>
<polygon fill="#8dd3c7" stroke="#000000" points="1212.4231,-190 1209.4231,-194 1188.4231,-194 1185.4231,-190 1113.5769,-190 1113.5769,-154 1212.4231,-154 1212.4231,-190"/>
<text text-anchor="middle" x="1163" y="-167.8" font-family="Times,serif" font-size="14.00" fill="#000000">SharedModule</text>
</g>
<!-- CommonModule&#45;&gt;SharedModule -->
<g id="edge14" class="edge">
<title>CommonModule&#45;&gt;SharedModule</title>
<path fill="none" stroke="#000000" d="M1162.8114,-122.2228C1162.8114,-122.2228 1162.8114,-143.7269 1162.8114,-143.7269"/>
<polygon fill="#000000" stroke="#000000" points="1159.3114,-143.7269 1162.8114,-153.7269 1166.3114,-143.727 1159.3114,-143.7269"/>
</g>
<!-- HomeModule -->
<g id="node12" class="node">
<title>HomeModule</title>
<polygon fill="#8dd3c7" stroke="#000000" points="1141.7619,-258 1138.7619,-262 1117.7619,-262 1114.7619,-258 1048.2381,-258 1048.2381,-222 1141.7619,-222 1141.7619,-258"/>
<text text-anchor="middle" x="1095" y="-235.8" font-family="Times,serif" font-size="14.00" fill="#000000">HomeModule</text>
</g>
<!-- CommonModule&#45;&gt;HomeModule -->
<g id="edge8" class="edge">
<title>CommonModule&#45;&gt;HomeModule</title>
<path fill="none" stroke="#000000" d="M1106.9776,-122.0597C1106.9776,-122.0597 1106.9776,-211.8656 1106.9776,-211.8656"/>
<polygon fill="#000000" stroke="#000000" points="1103.4776,-211.8655 1106.9776,-221.8656 1110.4776,-211.8656 1103.4776,-211.8655"/>
</g>
<!-- PopularModule -->
<g id="node14" class="node">
<title>PopularModule</title>
<polygon fill="#8dd3c7" stroke="#000000" points="1495.5982,-258 1492.5982,-262 1471.5982,-262 1468.5982,-258 1392.4018,-258 1392.4018,-222 1495.5982,-222 1495.5982,-258"/>
<text text-anchor="middle" x="1444" y="-235.8" font-family="Times,serif" font-size="14.00" fill="#000000">PopularModule</text>
</g>
<!-- CommonModule&#45;&gt;PopularModule -->
<g id="edge11" class="edge">
<title>CommonModule&#45;&gt;PopularModule</title>
<path fill="none" stroke="#000000" d="M1211.7659,-104C1283.1606,-104 1397.7501,-104 1397.7501,-104 1397.7501,-104 1397.7501,-211.9403 1397.7501,-211.9403"/>
<polygon fill="#000000" stroke="#000000" points="1394.2502,-211.9402 1397.7501,-221.9403 1401.2502,-211.9403 1394.2502,-211.9402"/>
</g>
<!-- SharedModule&#45;&gt;HomeModule -->
<g id="edge9" class="edge">
<title>SharedModule&#45;&gt;HomeModule</title>
<path fill="none" stroke="#000000" d="M1127.8349,-190.2228C1127.8349,-190.2228 1127.8349,-211.7269 1127.8349,-211.7269"/>
<polygon fill="#000000" stroke="#000000" points="1124.3349,-211.7269 1127.8349,-221.7269 1131.3349,-211.727 1124.3349,-211.7269"/>
</g>
<!-- SharedModule&#45;&gt;PopularModule -->
<g id="edge12" class="edge">
<title>SharedModule&#45;&gt;PopularModule</title>
<path fill="none" stroke="#000000" d="M1212.2225,-172C1280.3535,-172 1395.1005,-172 1395.1005,-172 1395.1005,-172 1395.1005,-211.7772 1395.1005,-211.7772"/>
<polygon fill="#000000" stroke="#000000" points="1391.6006,-211.7772 1395.1005,-221.7772 1398.6006,-211.7773 1391.6006,-211.7772"/>
</g>
<!-- TestComponent  -->
<g id="node15" class="node">
<title>TestComponent </title>
<polygon fill="#fb8072" stroke="#000000" points="1360.4348,-258 1251.5652,-258 1251.5652,-222 1360.4348,-222 1360.4348,-258"/>
<text text-anchor="middle" x="1306" y="-235.8" font-family="Times,serif" font-size="14.00" fill="#000000">TestComponent </text>
</g>
<!-- SharedModule&#45;&gt;TestComponent  -->
<g id="edge15" class="edge">
<title>SharedModule&#45;&gt;TestComponent </title>
<path fill="none" stroke="#000000" stroke-dasharray="5,2" d="M1177.046,-190.2228C1177.046,-210.3652 1177.046,-240 1177.046,-240 1177.046,-240 1241.3119,-240 1241.3119,-240"/>
<polygon fill="#000000" stroke="#000000" points="1241.3119,-243.5001 1251.3119,-240 1241.3118,-236.5001 1241.3119,-243.5001"/>
</g>
<!-- HomeRouterModule -->
<g id="node11" class="node">
<title>HomeRouterModule</title>
<polygon fill="#8dd3c7" stroke="#000000" points="1081.8641,-122 1078.8641,-126 1057.8641,-126 1054.8641,-122 950.1359,-122 950.1359,-86 1081.8641,-86 1081.8641,-122"/>
<text text-anchor="middle" x="1016" y="-99.8" font-family="Times,serif" font-size="14.00" fill="#000000">HomeRouterModule</text>
</g>
<!-- HomeRouterModule&#45;&gt;HomeModule -->
<g id="edge10" class="edge">
<title>HomeRouterModule&#45;&gt;HomeModule</title>
<path fill="none" stroke="#000000" d="M1065.0256,-122.0597C1065.0256,-122.0597 1065.0256,-211.8656 1065.0256,-211.8656"/>
<polygon fill="#000000" stroke="#000000" points="1061.5257,-211.8655 1065.0256,-221.8656 1068.5257,-211.8656 1061.5257,-211.8655"/>
</g>
<!-- PopularRouterModule -->
<g id="node13" class="node">
<title>PopularRouterModule</title>
<polygon fill="#8dd3c7" stroke="#000000" points="1541.7007,-190 1538.7007,-194 1517.7007,-194 1514.7007,-190 1400.2993,-190 1400.2993,-154 1541.7007,-154 1541.7007,-190"/>
<text text-anchor="middle" x="1471" y="-167.8" font-family="Times,serif" font-size="14.00" fill="#000000">PopularRouterModule</text>
</g>
<!-- PopularRouterModule&#45;&gt;PopularModule -->
<g id="edge13" class="edge">
<title>PopularRouterModule&#45;&gt;PopularModule</title>
<path fill="none" stroke="#000000" d="M1447.9744,-190.2228C1447.9744,-190.2228 1447.9744,-211.7269 1447.9744,-211.7269"/>
<polygon fill="#000000" stroke="#000000" points="1444.4745,-211.7269 1447.9744,-221.7269 1451.4745,-211.727 1444.4745,-211.7269"/>
</g>
</g>
</svg>
