<?xml version="1.0" encoding="UTF-8" standalone="no"?>
<!DOCTYPE svg PUBLIC "-//W3C//DTD SVG 1.1//EN"
 "http://www.w3.org/Graphics/SVG/1.1/DTD/svg11.dtd">
<!-- Generated by graphviz version 2.40.1 (20161225.0304)
 -->
<!-- Title: dependencies Pages: 1 -->
<svg width="592pt" height="211pt"
 viewBox="0.00 0.00 592.00 211.00" xmlns="http://www.w3.org/2000/svg" xmlns:xlink="http://www.w3.org/1999/xlink">
<g id="graph0" class="graph" transform="scale(1 1) rotate(0) translate(4 207)">
<title>dependencies</title>
<polygon fill="#ffffff" stroke="transparent" points="-4,4 -4,-207 588,-207 588,4 -4,4"/>
<text text-anchor="start" x="271.0091" y="-42.4" font-family="sans-serif" font-weight="bold" font-size="14.00" fill="#000000">Legend</text>
<polygon fill="#ffffb3" stroke="transparent" points="58,-10 58,-30 78,-30 78,-10 58,-10"/>
<text text-anchor="start" x="81.629" y="-15.4" font-family="sans-serif" font-size="14.00" fill="#000000"> &#160;Declarations</text>
<polygon fill="#8dd3c7" stroke="transparent" points="171,-10 171,-30 191,-30 191,-10 171,-10"/>
<text text-anchor="start" x="194.7251" y="-15.4" font-family="sans-serif" font-size="14.00" fill="#000000"> &#160;Module</text>
<polygon fill="#80b1d3" stroke="transparent" points="257,-10 257,-30 277,-30 277,-10 257,-10"/>
<text text-anchor="start" x="280.7812" y="-15.4" font-family="sans-serif" font-size="14.00" fill="#000000"> &#160;Bootstrap</text>
<polygon fill="#fdb462" stroke="transparent" points="354,-10 354,-30 374,-30 374,-10 354,-10"/>
<text text-anchor="start" x="377.6732" y="-15.4" font-family="sans-serif" font-size="14.00" fill="#000000"> &#160;Providers</text>
<polygon fill="#fb8072" stroke="transparent" points="450,-10 450,-30 470,-30 470,-10 450,-10"/>
<text text-anchor="start" x="473.7258" y="-15.4" font-family="sans-serif" font-size="14.00" fill="#000000"> &#160;Exports</text>
<g id="clust1" class="cluster">
<title>cluster_PopularModule</title>
<polygon fill="none" stroke="#000000" stroke-dasharray="1,5" points="8,-70 8,-195 576,-195 576,-70 8,-70"/>
</g>
<g id="clust2" class="cluster">
<title>cluster_PopularModule_declarations</title>
<polygon fill="none" stroke="#000000" points="428,-78 428,-130 568,-130 568,-78 428,-78"/>
</g>
<g id="clust4" class="cluster">
<title>cluster_PopularModule_imports</title>
<polygon fill="none" stroke="#000000" points="16,-78 16,-130 420,-130 420,-78 16,-78"/>
</g>
<!-- PopularComponent -->
<g id="node1" class="node">
<title>PopularComponent</title>
<polygon fill="#ffffb3" stroke="#000000" points="560.3809,-122 435.6191,-122 435.6191,-86 560.3809,-86 560.3809,-122"/>
<text text-anchor="middle" x="498" y="-99.8" font-family="Times,serif" font-size="14.00" fill="#000000">PopularComponent</text>
</g>
<!-- PopularModule -->
<g id="node2" class="node">
<title>PopularModule</title>
<polygon fill="#8dd3c7" stroke="#000000" points="345.5982,-187 342.5982,-191 321.5982,-191 318.5982,-187 242.4018,-187 242.4018,-151 345.5982,-151 345.5982,-187"/>
<text text-anchor="middle" x="294" y="-164.8" font-family="Times,serif" font-size="14.00" fill="#000000">PopularModule</text>
</g>
<!-- PopularComponent&#45;&gt;PopularModule -->
<g id="edge1" class="edge">
<title>PopularComponent&#45;&gt;PopularModule</title>
<path fill="none" stroke="#000000" d="M498,-122.1061C498,-141.3391 498,-169 498,-169 498,-169 355.7415,-169 355.7415,-169"/>
<polygon fill="#000000" stroke="#000000" points="355.7416,-165.5001 345.7415,-169 355.7415,-172.5001 355.7416,-165.5001"/>
</g>
<!-- CommonModule -->
<g id="node3" class="node">
<title>CommonModule</title>
<polygon fill="#8dd3c7" stroke="#000000" points="411.6681,-122 408.6681,-126 387.6681,-126 384.6681,-122 300.3319,-122 300.3319,-86 411.6681,-86 411.6681,-122"/>
<text text-anchor="middle" x="356" y="-99.8" font-family="Times,serif" font-size="14.00" fill="#000000">CommonModule</text>
</g>
<!-- CommonModule&#45;&gt;PopularModule -->
<g id="edge2" class="edge">
<title>CommonModule&#45;&gt;PopularModule</title>
<path fill="none" stroke="#000000" d="M322.8577,-122.1061C322.8577,-122.1061 322.8577,-140.991 322.8577,-140.991"/>
<polygon fill="#000000" stroke="#000000" points="319.3577,-140.9909 322.8577,-150.991 326.3577,-140.991 319.3577,-140.9909"/>
</g>
<!-- SharedModule -->
<g id="node4" class="node">
<title>SharedModule</title>
<polygon fill="#8dd3c7" stroke="#000000" points="282.4231,-122 279.4231,-126 258.4231,-126 255.4231,-122 183.5769,-122 183.5769,-86 282.4231,-86 282.4231,-122"/>
<text text-anchor="middle" x="233" y="-99.8" font-family="Times,serif" font-size="14.00" fill="#000000">SharedModule</text>
</g>
<!-- SharedModule&#45;&gt;PopularModule -->
<g id="edge3" class="edge">
<title>SharedModule&#45;&gt;PopularModule</title>
<path fill="none" stroke="#000000" d="M262.331,-122.1061C262.331,-122.1061 262.331,-140.991 262.331,-140.991"/>
<polygon fill="#000000" stroke="#000000" points="258.8311,-140.9909 262.331,-150.991 265.8311,-140.991 258.8311,-140.9909"/>
</g>
<!-- PopularRouterModule -->
<g id="node5" class="node">
<title>PopularRouterModule</title>
<polygon fill="#8dd3c7" stroke="#000000" points="165.7007,-122 162.7007,-126 141.7007,-126 138.7007,-122 24.2993,-122 24.2993,-86 165.7007,-86 165.7007,-122"/>
<text text-anchor="middle" x="95" y="-99.8" font-family="Times,serif" font-size="14.00" fill="#000000">PopularRouterModule</text>
</g>
<!-- PopularRouterModule&#45;&gt;PopularModule -->
<g id="edge4" class="edge">
<title>PopularRouterModule&#45;&gt;PopularModule</title>
<path fill="none" stroke="#000000" d="M95,-122.1061C95,-141.3391 95,-169 95,-169 95,-169 232.2346,-169 232.2346,-169"/>
<polygon fill="#000000" stroke="#000000" points="232.2346,-172.5001 242.2346,-169 232.2345,-165.5001 232.2346,-172.5001"/>
</g>
</g>
</svg>
